<?xml version="1.0" encoding="UTF-8"?>
<svg id="Layer_1" data-name="Layer 1" xmlns="http://www.w3.org/2000/svg" viewBox="0 0 92.65 114.99">
  <defs>
    <style>
      .cls-1 {
        fill: #fff;
      }
    </style>
  </defs>
  <path class="cls-1" d="M53.75,62.12c0,7.84,.62,15.28-.24,22.53-.49,4.08-2.77,8.4-5.42,11.66-5.42,6.66-14.64,8.46-22.79,5.43-8.08-3-13.57-10.93-13.62-20.21-.09-15.41,.03-30.81,.01-46.22,0-5.28-2.09-7.98-5.9-7.89-3.64,.08-5.7,2.79-5.71,7.67-.03,15.88-.13,31.76,0,47.64,.14,17.03,13.87,31.26,30.81,32.21,17.08,.96,33.01-11.36,34.2-28.36,1.24-17.68,.58-35.5,.6-53.26,0-3.43-2.22-5.7-5.65-5.8-3.7-.11-5.73,2.23-6.07,5.87-.16,1.72-.06,3.46-.06,5.19,0,3.7,0,7.4,0,11.11h-15.14c0-5.74-.08-11.21,.02-16.67,.2-11.25,8.05-19.9,18.96-21.03,10.79-1.11,20.83,5.89,22.54,16.94,1.04,6.69,.19,13.68,.19,20.82-3.06,.15-6.12,.31-9.4,.47v11.23c3.29,.19,6.35,.36,9.89,.57,0,6.45-.06,12.54,.02,18.63,.06,4.46,2.35,7.05,5.89,6.96,3.52-.09,5.7-2.73,5.71-7.2,.04-16.19,.23-32.39-.11-48.58-.09-4.27-1.23-8.78-2.99-12.69C83.25,5.28,68.13-2.34,53.8,.64c-16.15,3.35-26.63,15.97-26.88,32.91-.23,15.4-.07,30.81-.04,46.22,0,4.88,2.09,7.61,5.72,7.76,3.79,.15,6.08-2.7,6.13-7.81,.06-5.77,.01-11.55,.01-17.6h15.02Z"/>
  <path class="cls-1" d="M53.75,62.12h-15.02c0,6.05,.04,11.82-.01,17.6-.05,5.12-2.34,7.97-6.13,7.81-3.63-.15-5.71-2.88-5.72-7.76-.03-15.41-.18-30.82,.04-46.22,.25-16.95,10.73-29.56,26.88-32.91,14.33-2.98,29.45,4.64,35.66,18.47,1.75,3.91,2.9,8.43,2.99,12.69,.34,16.19,.15,32.38,.11,48.58-.01,4.47-2.19,7.11-5.71,7.2-3.54,.09-5.83-2.5-5.89-6.96-.08-6.09-.02-12.18-.02-18.63-3.54-.2-6.6-.38-9.89-.57v-11.23c3.28-.16,6.34-.32,9.4-.47,0-7.14,.85-14.12-.19-20.82-1.71-11.05-11.75-18.05-22.54-16.94-10.91,1.12-18.76,9.77-18.96,21.03-.1,5.46-.02,10.93-.02,16.67h15.14c0-3.7,0-7.41,0-11.11,0-1.73-.1-3.47,.06-5.19,.34-3.64,2.37-5.98,6.07-5.87,3.43,.1,5.65,2.37,5.65,5.8-.02,17.76,.64,35.58-.6,53.26-1.19,17-17.12,29.32-34.2,28.36C13.93,113.99,.2,99.75,.06,82.73c-.13-15.88-.03-31.76,0-47.64,0-4.87,2.08-7.59,5.71-7.67,3.81-.09,5.9,2.62,5.9,7.89,.01,15.41-.1,30.81-.01,46.22,.05,9.28,5.54,17.21,13.62,20.21,8.16,3.03,17.38,1.23,22.79-5.43,2.65-3.26,4.94-7.58,5.42-11.66,.87-7.26,.24-14.69,.24-22.53Z"/>
</svg>